<svg width="40" height="40" viewBox="0 0 40 40" fill="none" xmlns="http://www.w3.org/2000/svg">
<path d="M13.275 10.3368C12.9652 10.2917 12.6494 10.3541 12.38 10.5135H12.3567C11.7317 10.8802 11.1683 11.3418 10.6883 11.8852C10.2883 12.3468 10.0717 12.8135 10.015 13.2635C9.98166 13.5302 10.005 13.8002 10.0833 14.0552L10.1133 14.0718C10.5633 15.3935 11.15 16.6652 11.8667 17.8618C12.7907 19.5426 13.9279 21.0972 15.25 22.4868L15.29 22.5435L15.3533 22.5902L15.3917 22.6352L15.4383 22.6752C16.8329 24.0012 18.391 25.1438 20.075 26.0752C22 27.1235 23.1683 27.6185 23.87 27.8252V27.8352C24.075 27.8985 24.2617 27.9268 24.45 27.9268C25.0476 27.8827 25.6132 27.6398 26.0567 27.2368C26.5983 26.7568 27.0567 26.1918 27.4133 25.5635V25.5518C27.7483 24.9185 27.635 24.3218 27.1517 23.9168C26.1808 23.0686 25.131 22.3151 24.0167 21.6668C23.27 21.2618 22.5117 21.5068 22.205 21.9168L21.55 22.7435C21.2133 23.1535 20.6033 23.0968 20.6033 23.0968L20.5867 23.1068C16.035 21.9452 14.82 17.3368 14.82 17.3368C14.82 17.3368 14.7633 16.7102 15.185 16.3902L16.005 15.7302C16.3983 15.4102 16.6717 14.6535 16.25 13.9068C15.606 12.7914 14.8541 11.742 14.005 10.7735C13.8198 10.5456 13.5601 10.3903 13.2717 10.3352L13.275 10.3368ZM20.9667 8.3335C20.7456 8.3335 20.5337 8.42129 20.3774 8.57757C20.2211 8.73385 20.1333 8.94582 20.1333 9.16683C20.1333 9.38784 20.2211 9.5998 20.3774 9.75608C20.5337 9.91237 20.7456 10.0002 20.9667 10.0002C23.0733 10.0002 24.8233 10.6885 26.2083 12.0085C26.92 12.7302 27.475 13.5852 27.8383 14.5218C28.2033 15.4602 28.37 16.4618 28.3267 17.4652C28.3174 17.6862 28.3963 17.9018 28.546 18.0647C28.6957 18.2275 28.904 18.3242 29.125 18.3335C29.346 18.3428 29.5617 18.2639 29.7245 18.1142C29.8873 17.9644 29.984 17.7562 29.9933 17.5352C30.045 16.301 29.8402 15.0695 29.3917 13.9185C28.9412 12.7621 28.2582 11.7104 27.385 10.8285L27.3683 10.8118C25.65 9.17016 23.4767 8.3335 20.9667 8.3335Z" fill="#FAFAFA"/>
<path d="M20.9083 11.0734C20.6873 11.0734 20.4753 11.1612 20.319 11.3175C20.1627 11.4738 20.075 11.6858 20.075 11.9068C20.075 12.1278 20.1627 12.3398 20.319 12.496C20.4753 12.6523 20.6873 12.7401 20.9083 12.7401H20.9366C22.4566 12.8484 23.5633 13.3551 24.3383 14.1868C25.1333 15.0434 25.545 16.1084 25.5133 17.4251C25.5082 17.6461 25.5911 17.8601 25.7438 18.02C25.8965 18.1799 26.1064 18.2725 26.3275 18.2776C26.5485 18.2827 26.7624 18.1998 26.9223 18.0471C27.0822 17.8944 27.1749 17.6845 27.18 17.4634C27.22 15.7351 26.6633 14.2434 25.56 13.0534V13.0501C24.4316 11.8401 22.8833 11.2001 21.02 11.0751L20.9916 11.0718L20.9083 11.0734Z" fill="#FAFAFA"/>
<path d="M20.8767 13.865C20.7651 13.8552 20.6528 13.8679 20.5463 13.9025C20.4398 13.937 20.3414 13.9927 20.2568 14.0661C20.1723 14.1395 20.1035 14.2292 20.0544 14.3299C20.0053 14.4305 19.977 14.54 19.9712 14.6518C19.9654 14.7636 19.9822 14.8754 20.0205 14.9806C20.0589 15.0858 20.118 15.1822 20.1944 15.264C20.2709 15.3458 20.363 15.4114 20.4653 15.4568C20.5676 15.5022 20.6781 15.5266 20.79 15.5284C21.4867 15.565 21.9317 15.775 22.2117 16.0567C22.4933 16.34 22.7033 16.795 22.7417 17.5067C22.7438 17.6185 22.7683 17.7288 22.8139 17.8309C22.8595 17.9331 22.9252 18.025 23.0071 18.1012C23.089 18.1774 23.1853 18.2363 23.2905 18.2745C23.3956 18.3127 23.5074 18.3293 23.6191 18.3234C23.7307 18.3174 23.8401 18.2891 23.9406 18.24C24.0411 18.1909 24.1307 18.1221 24.204 18.0376C24.2774 17.9532 24.333 17.8548 24.3675 17.7484C24.402 17.6421 24.4148 17.5298 24.405 17.4184C24.3517 16.4184 24.0383 15.535 23.3967 14.885C22.7517 14.235 21.8733 13.9184 20.8767 13.865Z" fill="#FAFAFA"/>
<path fill-rule="evenodd" clip-rule="evenodd" d="M11.7784 3.9731C17.0818 2.78761 22.5816 2.78761 27.8851 3.9731L28.45 4.0981C30.0004 4.44469 31.4243 5.21432 32.5635 6.32148C33.7027 7.42863 34.5127 8.82997 34.9034 10.3698C36.2496 15.6746 36.2496 21.2316 34.9034 26.5364C34.5127 28.0762 33.7027 29.4776 32.5635 30.5847C31.4243 31.6919 30.0004 32.4615 28.45 32.8081L27.8834 32.9331C24.5618 33.6759 21.1534 33.9558 17.755 33.7648L13.3334 37.7214C13.1667 37.8707 12.963 37.9725 12.7435 38.0161C12.5241 38.0598 12.2969 38.0438 12.0858 37.9697C11.8747 37.8956 11.6873 37.7662 11.5432 37.595C11.3991 37.4239 11.3036 37.2171 11.2667 36.9964L10.535 32.6264C9.13202 32.1899 7.8644 31.4008 6.85333 30.3346C5.84227 29.2684 5.12154 27.9607 4.76005 26.5364C3.41381 21.2316 3.41381 15.6746 4.76005 10.3698C5.15075 8.82997 5.96071 7.42863 7.09994 6.32148C8.23917 5.21432 9.66305 4.44469 11.2134 4.0981L11.7784 3.9731ZM27.34 6.41144C22.3955 5.30611 17.2679 5.30611 12.3234 6.41144L11.7567 6.5381C10.6579 6.7842 9.64883 7.33003 8.84151 8.11499C8.03419 8.89995 7.46023 9.89331 7.18338 10.9848C5.93957 15.886 5.93957 21.0202 7.18338 25.9214C7.46037 27.0131 8.03457 28.0066 8.8422 28.7916C9.64984 29.5766 10.6593 30.1223 11.7584 30.3681L11.9084 30.4014C12.151 30.4557 12.372 30.5811 12.543 30.7616C12.714 30.9421 12.8273 31.1695 12.8684 31.4148L13.3584 34.3448L16.4784 31.5531C16.603 31.4413 16.7488 31.3556 16.9071 31.3013C17.0654 31.2469 17.233 31.2248 17.4 31.2364C20.7318 31.4728 24.0802 31.223 27.34 30.4948L27.9051 30.3681C29.0042 30.1223 30.0136 29.5766 30.8212 28.7916C31.6289 28.0066 32.2031 27.0131 32.48 25.9214C33.7234 21.0214 33.7234 15.8864 32.48 10.9848C32.2031 9.8931 31.6289 8.89959 30.8212 8.11461C30.0136 7.32963 29.0042 6.78392 27.9051 6.5381L27.34 6.41144Z" fill="#FAFAFA"/>
</svg>
