<svg width="41" height="40" viewBox="0 0 41 40" fill="none" xmlns="http://www.w3.org/2000/svg">
<path d="M13.6083 10.3366C13.2986 10.2916 12.9827 10.3539 12.7133 10.5133H12.69C12.065 10.88 11.5016 11.3416 11.0216 11.885C10.6216 12.3466 10.405 12.8133 10.3483 13.2633C10.315 13.53 10.3383 13.8 10.4166 14.055L10.4466 14.0716C10.8966 15.3933 11.4833 16.665 12.2 17.8616C13.1241 19.5425 14.2612 21.097 15.5833 22.4866L15.6233 22.5433L15.6866 22.59L15.725 22.635L15.7716 22.675C17.1662 24.001 18.7243 25.1436 20.4083 26.075C22.3333 27.1233 23.5016 27.6183 24.2033 27.825V27.835C24.4083 27.8983 24.595 27.9266 24.7833 27.9266C25.3809 27.8825 25.9465 27.6396 26.39 27.2366C26.9316 26.7566 27.39 26.1916 27.7466 25.5633V25.5516C28.0816 24.9183 27.9683 24.3216 27.485 23.9166C26.5141 23.0684 25.4643 22.3149 24.35 21.6666C23.6033 21.2616 22.845 21.5066 22.5383 21.9166L21.8833 22.7433C21.5466 23.1533 20.9366 23.0966 20.9366 23.0966L20.92 23.1066C16.3683 21.945 15.1533 17.3366 15.1533 17.3366C15.1533 17.3366 15.0966 16.71 15.5183 16.39L16.3383 15.73C16.7316 15.41 17.005 14.6533 16.5833 13.9066C15.9393 12.7913 15.1874 11.7418 14.3383 10.7733C14.1531 10.5454 13.8934 10.3902 13.605 10.335L13.6083 10.3366ZM21.3 8.33331C21.079 8.33331 20.867 8.42111 20.7107 8.57739C20.5544 8.73367 20.4666 8.94563 20.4666 9.16665C20.4666 9.38766 20.5544 9.59962 20.7107 9.7559C20.867 9.91218 21.079 9.99998 21.3 9.99998C23.4066 9.99998 25.1566 10.6883 26.5416 12.0083C27.2533 12.73 27.8083 13.585 28.1716 14.5216C28.5366 15.46 28.7033 16.4616 28.66 17.465C28.6507 17.686 28.7296 17.9016 28.8793 18.0645C29.029 18.2273 29.2373 18.324 29.4583 18.3333C29.6793 18.3426 29.895 18.2637 30.0578 18.114C30.2207 17.9643 30.3174 17.756 30.3266 17.535C30.3783 16.3008 30.1735 15.0693 29.725 13.9183C29.2745 12.7619 28.5916 11.7102 27.7183 10.8283L27.7016 10.8116C25.9833 9.16998 23.81 8.33331 21.3 8.33331Z" fill="#020202"/>
<path d="M21.2417 11.0733C21.0206 11.0733 20.8087 11.1611 20.6524 11.3174C20.4961 11.4737 20.4083 11.6856 20.4083 11.9067C20.4083 12.1277 20.4961 12.3396 20.6524 12.4959C20.8087 12.6522 21.0206 12.74 21.2417 12.74H21.27C22.79 12.8483 23.8967 13.355 24.6717 14.1867C25.4667 15.0433 25.8783 16.1083 25.8467 17.425C25.8416 17.646 25.9245 17.86 26.0772 18.0199C26.2299 18.1797 26.4398 18.2724 26.6608 18.2775C26.8818 18.2826 27.0958 18.1996 27.2557 18.047C27.4156 17.8943 27.5082 17.6843 27.5133 17.4633C27.5533 15.735 26.9967 14.2433 25.8933 13.0533V13.05C24.765 11.84 23.2167 11.2 21.3533 11.075L21.325 11.0717L21.2417 11.0733Z" fill="#020202"/>
<path d="M21.21 13.865C21.0985 13.8551 20.9861 13.8679 20.8796 13.9024C20.7731 13.937 20.6747 13.9926 20.5902 14.066C20.5057 14.1395 20.4368 14.2292 20.3877 14.3298C20.3387 14.4304 20.3104 14.5399 20.3045 14.6517C20.2987 14.7635 20.3155 14.8754 20.3538 14.9805C20.3922 15.0857 20.4513 15.1821 20.5277 15.2639C20.6042 15.3457 20.6963 15.4113 20.7986 15.4567C20.9009 15.5022 21.0114 15.5265 21.1233 15.5283C21.82 15.565 22.265 15.775 22.545 16.0566C22.8267 16.34 23.0367 16.795 23.075 17.5066C23.0771 17.6185 23.1016 17.7287 23.1472 17.8309C23.1928 17.933 23.2585 18.0249 23.3404 18.1011C23.4223 18.1773 23.5187 18.2363 23.6238 18.2745C23.7289 18.3126 23.8407 18.3292 23.9524 18.3233C24.0641 18.3174 24.1734 18.289 24.2739 18.2399C24.3744 18.1908 24.464 18.122 24.5374 18.0376C24.6107 17.9531 24.6663 17.8548 24.7008 17.7484C24.7353 17.642 24.7481 17.5297 24.7383 17.4183C24.685 16.4183 24.3717 15.535 23.73 14.885C23.085 14.235 22.2067 13.9183 21.21 13.865Z" fill="#020202"/>
<path fill-rule="evenodd" clip-rule="evenodd" d="M12.1116 3.97335C17.4151 2.78786 22.9149 2.78786 28.2183 3.97335L28.7833 4.09835C30.3336 4.44493 31.7575 5.21456 32.8967 6.32172C34.036 7.42888 34.8459 8.83021 35.2366 10.37C36.5828 15.6748 36.5828 21.2319 35.2366 26.5367C34.8459 28.0765 34.036 29.4778 32.8967 30.585C31.7575 31.6921 30.3336 32.4618 28.7833 32.8083L28.2166 32.9333C24.895 33.6762 21.4866 33.956 18.0883 33.765L13.6666 37.7217C13.4999 37.8709 13.2962 37.9727 13.0768 38.0164C12.8573 38.06 12.6302 38.044 12.419 37.9699C12.2079 37.8959 12.0205 37.7665 11.8764 37.5953C11.7324 37.4241 11.6369 37.2174 11.6 36.9967L10.8683 32.6267C9.46527 32.1901 8.19765 31.401 7.18658 30.3348C6.17552 29.2686 5.4548 27.9609 5.0933 26.5367C3.74706 21.2319 3.74706 15.6748 5.0933 10.37C5.484 8.83021 6.29396 7.42888 7.43319 6.32172C8.57242 5.21456 9.9963 4.44493 11.5466 4.09835L12.1116 3.97335ZM27.6733 6.41168C22.7288 5.30636 17.6012 5.30636 12.6566 6.41168L12.09 6.53835C10.9912 6.78444 9.98208 7.33028 9.17476 8.11523C8.36744 8.90019 7.79349 9.89356 7.51663 10.985C6.27282 15.8862 6.27282 21.0205 7.51663 25.9217C7.79362 27.0134 8.36782 28.0069 9.17545 28.7918C9.98309 29.5768 10.9925 30.1225 12.0916 30.3683L12.2416 30.4017C12.4843 30.4559 12.7052 30.5814 12.8763 30.7619C13.0473 30.9424 13.1606 31.1698 13.2016 31.415L13.6916 34.345L16.8116 31.5533C16.9362 31.4415 17.082 31.3559 17.2403 31.3015C17.3987 31.2471 17.5663 31.2251 17.7333 31.2367C21.0651 31.473 24.4135 31.2232 27.6733 30.495L28.2383 30.3683C29.3374 30.1225 30.3468 29.5768 31.1545 28.7918C31.9621 28.0069 32.5363 27.0134 32.8133 25.9217C34.0566 21.0217 34.0566 15.8867 32.8133 10.985C32.5363 9.89335 31.9621 8.89984 31.1545 8.11486C30.3468 7.32988 29.3374 6.78417 28.2383 6.53835L27.6733 6.41168Z" fill="#020202"/>
</svg>
