<svg width="41" height="40" viewBox="0 0 41 40" fill="none" xmlns="http://www.w3.org/2000/svg">
<path d="M32.4166 8.18335C30.8886 6.63989 29.0686 5.41613 27.0627 4.58344C25.0568 3.75074 22.9052 3.32579 20.7333 3.33335C11.6333 3.33335 4.21665 10.75 4.21665 19.85C4.21665 22.7667 4.98331 25.6 6.41665 28.1L4.08331 36.6667L12.8333 34.3667C15.25 35.6833 17.9666 36.3834 20.7333 36.3834C29.8333 36.3834 37.25 28.9667 37.25 19.8667C37.25 15.45 35.5333 11.3 32.4166 8.18335ZM20.7333 33.5833C18.2666 33.5833 15.85 32.9167 13.7333 31.6667L13.2333 31.3667L8.03331 32.7333L9.41665 27.6667L9.08331 27.15C7.71289 24.9616 6.98521 22.4321 6.98331 19.85C6.98331 12.2833 13.15 6.11668 20.7166 6.11668C24.3833 6.11668 27.8333 7.55002 30.4166 10.15C31.6958 11.4233 32.7095 12.9378 33.399 14.6057C34.0885 16.2737 34.44 18.0619 34.4333 19.8667C34.4666 27.4333 28.3 33.5833 20.7333 33.5833ZM28.2666 23.3167C27.85 23.1167 25.8166 22.1167 25.45 21.9667C25.0666 21.8334 24.8 21.7667 24.5166 22.1667C24.2333 22.5834 23.45 23.5167 23.2166 23.7833C22.9833 24.0667 22.7333 24.1 22.3166 23.8834C21.9 23.6833 20.5666 23.2334 19 21.8334C17.7666 20.7334 16.95 19.3834 16.7 18.9667C16.4666 18.55 16.6666 18.3334 16.8833 18.1167C17.0666 17.9333 17.3 17.6333 17.5 17.4C17.7 17.1667 17.7833 16.9833 17.9166 16.7167C18.05 16.4333 17.9833 16.2 17.8833 16C17.7833 15.8 16.95 13.7667 16.6166 12.9334C16.2833 12.1334 15.9333 12.2334 15.6833 12.2167H14.8833C14.6 12.2167 14.1666 12.3167 13.7833 12.7334C13.4166 13.15 12.35 14.15 12.35 16.1834C12.35 18.2167 13.8333 20.1834 14.0333 20.45C14.2333 20.7334 16.95 24.9 21.0833 26.6833C22.0666 27.1167 22.8333 27.3667 23.4333 27.55C24.4166 27.8667 25.3166 27.8167 26.0333 27.7167C26.8333 27.6 28.4833 26.7167 28.8166 25.75C29.1666 24.7833 29.1666 23.9667 29.05 23.7833C28.9333 23.6 28.6833 23.5167 28.2666 23.3167Z" fill="#020202"/>
</svg>
