<svg width="40" height="40" viewBox="0 0 40 40" fill="none" xmlns="http://www.w3.org/2000/svg">
<g clip-path="url(#clip0_20_757)">
<path d="M12.5 21.0734L26.6031 33.4375C26.7656 33.5808 26.9625 33.6794 27.1746 33.7237C27.3866 33.768 27.6066 33.7564 27.8128 33.6901C28.019 33.6238 28.2045 33.505 28.351 33.3454C28.4975 33.1858 28.6 32.9908 28.6484 32.7797L35 5.1906C35.0062 5.16294 35.0048 5.13411 34.9958 5.1072C34.9869 5.08029 34.9708 5.05633 34.9493 5.03786C34.9278 5.0194 34.9016 5.00714 34.8737 5.00239C34.8457 4.99764 34.817 5.00059 34.7906 5.01091L3.125 17.4031C2.92842 17.4788 2.76169 17.6161 2.64983 17.7946C2.53797 17.9731 2.48702 18.1831 2.50463 18.3929C2.52224 18.6028 2.60745 18.8014 2.74749 18.9587C2.88752 19.1161 3.07481 19.2238 3.28125 19.2656L12.5 21.0734Z" stroke="#020202" stroke-width="3" stroke-linecap="round" stroke-linejoin="round"/>
<path d="M12.5 21.0734L34.9078 5.01404" stroke="#020202" stroke-width="3" stroke-linecap="round" stroke-linejoin="round"/>
<path d="M19.4328 27.1531L14.65 32.1156C14.4772 32.2949 14.2547 32.4185 14.0112 32.4706C13.7677 32.5226 13.5142 32.5007 13.2831 32.4077C13.0521 32.3147 12.8542 32.1548 12.7146 31.9485C12.5751 31.7423 12.5004 31.499 12.5 31.25V21.0734" stroke="#020202" stroke-width="3" stroke-linecap="round" stroke-linejoin="round"/>
</g>
<defs>
<clipPath id="clip0_20_757">
<rect width="40" height="40" fill="white"/>
</clipPath>
</defs>
</svg>
