<svg width="24" height="24" viewBox="0 0 24 24" fill="none" xmlns="http://www.w3.org/2000/svg">
<path d="M15.6223 14.4643C15.7478 14.3808 15.8922 14.3299 16.0423 14.3163C16.1924 14.3026 16.3436 14.3266 16.4821 14.3862L21.8245 16.7798C22.0045 16.8567 22.1548 16.9899 22.2528 17.1594C22.3508 17.3289 22.3913 17.5256 22.3682 17.72C22.1922 19.0353 21.5445 20.2418 20.5456 21.1153C19.5466 21.9888 18.2645 22.4698 16.9375 22.4688C12.8515 22.4688 8.93287 20.8456 6.04364 17.9564C3.15441 15.0672 1.53125 11.1485 1.53125 7.06252C1.53024 5.73555 2.0112 4.45337 2.88469 3.45444C3.75818 2.4555 4.96475 1.80781 6.28 1.63182C6.47443 1.60872 6.67111 1.64921 6.8406 1.74723C7.01009 1.84525 7.14328 1.99553 7.22024 2.17557L9.61387 7.52244C9.67268 7.65977 9.69663 7.80951 9.68358 7.95833C9.67054 8.10716 9.62091 8.25044 9.5391 8.37545L7.11828 11.2539C7.03241 11.3835 6.98163 11.5331 6.97091 11.6882C6.96019 11.8433 6.98989 11.9985 7.05711 12.1387C7.99395 14.0565 9.97637 16.0151 11.8999 16.9429C12.0408 17.0098 12.1967 17.0389 12.3522 17.0272C12.5078 17.0154 12.6576 16.9634 12.7869 16.8761L15.6223 14.4643Z" stroke="#020202" stroke-width="2" stroke-linecap="round" stroke-linejoin="round"/>
</svg>
