<svg width="29" height="29" viewBox="0 0 29 29" fill="none" xmlns="http://www.w3.org/2000/svg">
<g clip-path="url(#clip0_1_474)">
<path d="M9.0625 15.2781L19.2873 24.242C19.405 24.346 19.5478 24.4175 19.7016 24.4496C19.8553 24.4817 20.0148 24.4733 20.1643 24.4252C20.3138 24.3771 20.4483 24.291 20.5545 24.1753C20.6607 24.0595 20.735 23.9182 20.7701 23.7651L25.375 3.76305C25.3795 3.743 25.3784 3.7221 25.372 3.70259C25.3655 3.68308 25.3538 3.6657 25.3382 3.65232C25.3226 3.63893 25.3037 3.63004 25.2834 3.6266C25.2632 3.62316 25.2423 3.62529 25.2232 3.63278L2.26562 12.6171C2.1231 12.672 2.00222 12.7716 1.92113 12.901C1.84003 13.0304 1.80309 13.1826 1.81586 13.3348C1.82862 13.4869 1.8904 13.6309 1.99193 13.7449C2.09345 13.859 2.22924 13.9371 2.37891 13.9674L9.0625 15.2781Z" stroke="#020202" stroke-width="2" stroke-linecap="round" stroke-linejoin="round"/>
<path d="M9.0625 15.2783L25.3082 3.63525" stroke="#020202" stroke-width="2" stroke-linecap="round" stroke-linejoin="round"/>
<path d="M14.0888 19.6861L10.6213 23.2839C10.496 23.4139 10.3347 23.5035 10.1581 23.5412C9.98157 23.579 9.79776 23.5631 9.63028 23.4957C9.4628 23.4282 9.31928 23.3123 9.21811 23.1628C9.11695 23.0132 9.06277 22.8369 9.0625 22.6563V15.2783" stroke="#020202" stroke-width="2" stroke-linecap="round" stroke-linejoin="round"/>
</g>
<defs>
<clipPath id="clip0_1_474">
<rect width="29" height="29" fill="white"/>
</clipPath>
</defs>
</svg>
