<svg width="120" height="60" viewBox="0 0 120 60" fill="none" xmlns="http://www.w3.org/2000/svg">
<path d="M8.30074 59.9466C6.87775 59.9466 5.55139 59.6706 4.32165 59.1188C3.10948 58.5669 2.14326 57.8904 1.42298 57.0892L2.5034 52.5762C3.06556 53.6088 3.87368 54.5078 4.92774 55.2733C5.9818 56.0388 7.15005 56.4216 8.4325 56.4216C9.52169 56.4216 10.4089 56.0923 11.094 55.4335C11.7791 54.757 12.1217 53.9381 12.1217 52.9768C12.1217 52.229 11.946 51.6148 11.5947 51.1341C11.2609 50.6535 10.8656 50.2707 10.4089 49.9859C9.9521 49.6832 9.5744 49.4607 9.27574 49.3182L6.42978 47.8762C5.79734 47.538 5.12977 47.1196 4.42706 46.6211C3.72435 46.1226 3.12705 45.4728 2.63515 44.6717C2.14326 43.8528 1.89731 42.8202 1.89731 41.574C1.89731 40.2922 2.18718 39.1617 2.76691 38.1825C3.34665 37.2034 4.16354 36.4378 5.21761 35.886C6.27167 35.3341 7.49262 35.0581 8.88047 35.0581C10.2156 35.0581 11.4014 35.2896 12.4379 35.7524C13.4744 36.1975 14.3001 36.6693 14.915 37.1678L13.8609 41.6274C13.2987 40.7907 12.5521 40.0696 11.621 39.4643C10.7075 38.8412 9.7325 38.5297 8.69601 38.5297C7.74735 38.5297 7.00073 38.8056 6.45613 39.3575C5.91153 39.8916 5.63923 40.5503 5.63923 41.3336C5.63923 41.8855 5.76221 42.3573 6.00815 42.749C6.27167 43.1406 6.58789 43.47 6.95681 43.737C7.3433 43.9863 7.721 44.2088 8.08993 44.4046L10.9886 45.8734C11.3927 46.0692 11.867 46.3452 12.4116 46.7012C12.9737 47.0395 13.5183 47.4757 14.0454 48.0097C14.5724 48.5438 15.0028 49.1936 15.3366 49.9592C15.688 50.7247 15.8636 51.6415 15.8636 52.7097C15.8636 54.0983 15.5386 55.3445 14.8886 56.4483C14.2562 57.5343 13.3778 58.3888 12.2535 59.0119C11.1291 59.635 9.81156 59.9466 8.30074 59.9466Z" fill="#020202"/>
<path d="M17.5501 39.0104V35.4854H33.6246V39.0104H27.5637V59.5193H23.611V39.0104H17.5501Z" fill="#020202"/>
<path d="M45.3592 59.9733C43.7782 59.9733 42.3727 59.635 41.143 58.9585C39.9133 58.2642 38.947 57.3029 38.2443 56.0745C37.5416 54.8283 37.1903 53.3684 37.1903 51.6949V35.4854H41.143V51.508C41.143 52.95 41.5471 54.1072 42.3552 54.9796C43.1633 55.8341 44.191 56.2614 45.4383 56.2614C46.6505 56.2614 47.6606 55.843 48.4687 55.0063C49.2944 54.1517 49.7073 53.0302 49.7073 51.6415V35.4854H53.5282V51.5881C53.5282 53.2794 53.1769 54.757 52.4742 56.021C51.789 57.2851 50.8316 58.2642 49.6018 58.9585C48.3897 59.635 46.9755 59.9733 45.3592 59.9733Z" fill="#020202"/>
<path d="M58.829 59.5193V35.4854H66.7345C68.7548 35.4854 70.5467 35.8236 72.1102 36.5002C73.6913 37.1589 75.0264 38.0579 76.1156 39.1973C77.2048 40.3189 78.0305 41.6007 78.5927 43.0427C79.1548 44.4848 79.4359 45.9713 79.4359 47.5024C79.4359 49.0334 79.1548 50.52 78.5927 51.962C78.0305 53.404 77.2048 54.6947 76.1156 55.8341C75.0264 56.9557 73.6913 57.8547 72.1102 58.5313C70.5467 59.19 68.7548 59.5193 66.7345 59.5193H58.829ZM62.6236 55.9943H66.3655C67.9466 55.9943 69.2993 55.754 70.4237 55.2733C71.5656 54.7748 72.5055 54.1161 73.2433 53.2972C73.9811 52.4783 74.5257 51.5703 74.8771 50.5734C75.2285 49.5586 75.4041 48.5349 75.4041 47.5024C75.4041 46.4698 75.2285 45.455 74.8771 44.4581C74.5257 43.4433 73.9811 42.5264 73.2433 41.7075C72.5055 40.8886 71.5656 40.2388 70.4237 39.7581C69.2993 39.2596 67.9466 39.0104 66.3655 39.0104H62.6236V55.9943Z" fill="#020202"/>
<path d="M84.1166 59.5193V35.4854H88.0693V59.5193H84.1166Z" fill="#020202"/>
<path d="M105.185 60C103.464 60 101.848 59.6795 100.337 59.0386C98.826 58.3799 97.4996 57.4809 96.3577 56.3415C95.2334 55.2021 94.3462 53.8758 93.6962 52.3625C93.0462 50.8493 92.7212 49.2292 92.7212 47.5024C92.7212 45.7755 93.0462 44.1554 93.6962 42.6422C94.3462 41.1289 95.2334 39.8026 96.3577 38.6632C97.4996 37.5238 98.826 36.6337 100.337 35.9928C101.848 35.3341 103.464 35.0047 105.185 35.0047C106.925 35.0047 108.541 35.3341 110.034 35.9928C111.545 36.6337 112.871 37.5238 114.013 38.6632C115.155 39.8026 116.042 41.1289 116.675 42.6422C117.325 44.1554 117.65 45.7755 117.65 47.5024C117.65 49.2292 117.325 50.8493 116.675 52.3625C116.042 53.8758 115.155 55.2021 114.013 56.3415C112.871 57.4809 111.545 58.3799 110.034 59.0386C108.541 59.6795 106.925 60 105.185 60ZM105.185 56.2347C106.767 56.2347 108.19 55.843 109.454 55.0597C110.737 54.2764 111.747 53.226 112.485 51.9086C113.24 50.5734 113.618 49.1046 113.618 47.5024C113.618 45.8823 113.24 44.4135 112.485 43.0961C111.747 41.7787 110.737 40.7283 109.454 39.945C108.19 39.1617 106.767 38.77 105.185 38.77C103.604 38.77 102.173 39.1617 100.89 39.945C99.6253 40.7283 98.6152 41.7787 97.8598 43.0961C97.1219 44.4135 96.753 45.8823 96.753 47.5024C96.753 49.1046 97.1219 50.5734 97.8598 51.9086C98.6152 53.226 99.6253 54.2764 100.89 55.0597C102.173 55.843 103.604 56.2347 105.185 56.2347Z" fill="#020202"/>
<path d="M9.46021 25.6629L0 0.801132H4.03179L8.72236 13.1385C8.91561 13.6192 9.09128 14.1088 9.24939 14.6073C9.4075 15.088 9.5744 15.6755 9.75007 16.3698C9.94332 15.6755 10.1278 15.088 10.3035 14.6073C10.4791 14.1088 10.6548 13.6192 10.8305 13.1385L15.8109 0L20.7914 13.1385C20.967 13.6014 21.1515 14.0821 21.3448 14.5806C21.538 15.0613 21.7225 15.6577 21.8981 16.3698C22.0914 15.6577 22.2671 15.0613 22.4252 14.5806C22.6008 14.0821 22.7765 13.6014 22.9522 13.1385L27.5901 0.801132H31.411L21.9772 25.6629L16.7859 11.9369C16.6103 11.474 16.4346 11.0022 16.2589 10.5215C16.0832 10.023 15.9076 9.41774 15.7319 8.70562C15.5386 9.41774 15.3542 10.0141 15.1785 10.4948C15.0028 10.9755 14.8271 11.4562 14.6515 11.9369L9.46021 25.6629Z" fill="#020202"/>
<path d="M34.5568 24.8351V0.801132H46.7312V4.246H38.3514V8.65222H44.8866V12.017H38.3514V21.3101H46.7312V24.8351H34.5568Z" fill="#020202"/>
<path d="M51.1582 24.8351V0.801132H58.1941C59.7401 0.801132 60.9698 1.11268 61.8833 1.73578C62.7968 2.34108 63.4468 3.0799 63.8333 3.95225C64.2374 4.80679 64.4394 5.61682 64.4394 6.38234C64.4394 7.16567 64.2725 7.89559 63.9387 8.5721C63.6225 9.23081 63.1745 9.7916 62.5948 10.2545C63.7894 10.8954 64.7468 11.7944 65.4671 12.9516C66.205 14.1088 66.5739 15.4173 66.5739 16.8772C66.5739 18.1946 66.2489 19.4675 65.5989 20.6959C64.9664 21.9065 64.009 22.9034 62.7266 23.6868C61.4617 24.4523 59.8982 24.8351 58.036 24.8351H51.1582ZM54.9529 21.3101H57.6934C58.8705 21.3101 59.8103 21.0786 60.513 20.6158C61.2333 20.1351 61.7603 19.5476 62.0941 18.8533C62.4279 18.1412 62.5948 17.438 62.5948 16.7436C62.5948 16.0671 62.4367 15.3728 62.1205 14.6607C61.8043 13.9486 61.286 13.3611 60.5657 12.8982C59.863 12.4175 58.9056 12.1772 57.6934 12.1772H54.9529V21.3101ZM54.9529 9.21301H57.6671C58.5982 9.21301 59.3536 8.99047 59.9333 8.5454C60.513 8.08252 60.8029 7.43272 60.8029 6.59598C60.8029 5.72364 60.5218 5.06493 59.9596 4.61986C59.3975 4.15698 58.6684 3.92554 57.7725 3.92554H54.9529V9.21301Z" fill="#020202"/>
<path d="M74.1803 24.8792C73.2502 24.8792 72.5672 24.6215 72.1313 24.1061C71.7098 23.5907 71.4991 22.8838 71.4991 21.9854C71.4991 20.9988 71.7026 19.9458 72.1095 18.8266C72.5309 17.7074 73.2212 16.5955 74.1803 15.491C76.1421 13.1789 77.9732 11.64 79.6734 10.8742C81.3882 10.0937 82.994 9.70341 84.4908 9.70341C85.2465 9.70341 85.8859 9.8654 86.409 10.1894C86.9322 10.5134 87.1938 10.9552 87.1938 11.5148C87.1938 11.9419 87.1066 12.3763 86.9322 12.8181C87.3972 12.2585 87.7896 11.7725 88.1093 11.3602C88.4435 10.9331 88.7632 10.5281 89.0684 10.1452C89.4463 10.263 89.8822 10.3219 90.3763 10.3219C90.5798 10.3219 90.8559 10.3146 91.2046 10.2998C91.5534 10.2851 91.8223 10.263 92.0112 10.2336L84.6652 19.2021C83.7351 20.3213 83.0667 21.2344 82.6598 21.9413C82.2529 22.6334 82.0494 23.1709 82.0494 23.5538C82.0494 24.0251 82.2747 24.2607 82.7252 24.2607C83.5099 24.2607 84.3237 24.0325 85.1666 23.5759C86.0094 23.1047 86.8377 22.5082 87.6515 21.7866C88.4653 21.0503 89.2283 20.2919 89.9403 19.5114C90.6524 18.7161 91.2773 17.9872 91.815 17.3245C92.3672 16.647 92.7886 16.1463 93.0793 15.8223L93.5153 16.1979C93.1955 16.566 92.745 17.0962 92.1638 17.7883C91.5825 18.4805 90.914 19.2316 90.1583 20.0415C89.4172 20.8515 88.6107 21.6246 87.7387 22.361C86.8813 23.0973 85.9949 23.7011 85.0794 24.1724C84.1784 24.6436 83.2846 24.8792 82.3982 24.8792C80.945 24.8792 80.2184 24.4227 80.2184 23.5097C80.2184 23.1709 80.2765 22.8322 80.3928 22.4935C80.5235 22.1401 80.7779 21.6909 81.1557 21.146C81.5335 20.5864 82.1003 19.8427 82.8559 18.9149L82.638 18.8266C80.8651 21.0356 79.2229 22.5966 77.7116 23.5097C76.2148 24.4227 75.0377 24.8792 74.1803 24.8792ZM74.2675 24.2165C75.1975 24.2165 76.4255 23.6717 77.9514 22.5819C79.4772 21.4774 81.3083 19.6439 83.4445 17.0815C83.7933 16.6544 84.113 16.2568 84.4036 15.8886C84.7088 15.5204 84.9994 15.1744 85.2756 14.8504C85.6098 14.3349 85.9077 13.7974 86.1693 13.2378C86.4454 12.6782 86.5834 12.1701 86.5834 11.7136C86.5834 11.2571 86.4236 10.9257 86.1039 10.7195C85.7842 10.4986 85.4354 10.3882 85.0576 10.3882C84.3455 10.3882 83.1902 10.911 81.5917 11.9566C80.0077 12.9875 78.2638 14.6442 76.3601 16.9268C75.2702 18.2522 74.4855 19.4304 74.0059 20.4612C73.5263 21.4921 73.2866 22.361 73.2866 23.0679C73.2866 23.8336 73.6135 24.2165 74.2675 24.2165Z" fill="#861A0E"/>
<path d="M96.5234 24.8792C95.7096 24.8792 95.0484 24.6731 94.5398 24.2607C94.0311 23.8336 93.7768 23.2814 93.7768 22.604C93.7768 21.4258 94.627 20.0047 96.3272 18.3406C98.0275 16.6765 100.331 14.8577 103.237 12.8844C101.755 12.634 100.476 12.3837 99.4007 12.1333C98.3399 11.883 97.4898 11.6105 96.8504 11.316C96.5597 11.905 96.1383 12.6266 95.5861 13.4808C95.0339 14.3349 94.329 15.2554 93.4716 16.242C92.8904 16.9342 92.4544 17.4202 92.1638 17.7C91.8731 17.9798 91.6697 18.1492 91.5534 18.2081C91.4517 18.2522 91.3936 18.2891 91.379 18.3185C91.3354 18.3332 91.3064 18.2891 91.2918 18.186C91.2918 18.0829 91.2991 18.0019 91.3136 17.943C91.3136 17.8841 91.4226 17.7442 91.6406 17.5233C91.8586 17.3024 92.3163 16.7501 93.0139 15.8665C93.7405 14.9387 94.3872 14.0551 94.9539 13.2157C95.5207 12.3763 95.9566 11.64 96.2618 11.0067C95.7386 10.668 95.4335 10.2925 95.3463 9.88013C95.23 9.17325 95.3681 8.53264 95.7605 7.9583C96.1528 7.38396 96.6614 7.09678 97.2863 7.09678C98.0565 7.09678 98.4416 7.4355 98.4416 8.11292C98.4416 8.45164 98.3762 8.73881 98.2454 8.97443C98.1147 9.21006 97.9839 9.43833 97.8531 9.65923C97.5915 9.96849 97.4607 10.3587 97.4607 10.83C97.4607 10.9773 97.7077 11.1393 98.2018 11.316C98.7105 11.478 99.3281 11.64 100.055 11.802C100.796 11.9492 101.522 12.0818 102.234 12.1996C102.947 12.3027 103.506 12.3689 103.913 12.3984C104.189 12.4131 104.356 12.4647 104.414 12.553C104.487 12.6266 104.523 12.6856 104.523 12.7297C104.523 12.877 104.313 13.12 103.891 13.4587C103.092 14.0772 102.271 14.8283 101.428 15.7119C100.585 16.5808 99.8004 17.4865 99.0738 18.429C98.3472 19.3567 97.7586 20.233 97.3081 21.0577C96.8576 21.8824 96.6324 22.5598 96.6324 23.0899C96.6324 23.7821 96.9085 24.1282 97.4607 24.1282C98.1728 24.1282 98.9502 23.8852 99.7931 23.3992C100.636 22.9132 101.486 22.3021 102.343 21.5657C103.215 20.8294 104.029 20.071 104.785 19.2905C105.555 18.4952 106.216 17.7883 106.769 17.1698C107.321 16.5366 107.706 16.1021 107.924 15.8665L108.36 16.242C108.04 16.5513 107.582 17.0447 106.987 17.7221C106.405 18.3848 105.722 19.1285 104.937 19.9532C104.153 20.7631 103.295 21.5437 102.365 22.2947C101.45 23.0458 100.498 23.6643 99.5097 24.1503C98.5216 24.6363 97.5261 24.8792 96.5234 24.8792Z" fill="#861A0E"/>
<path d="M117.82 5.48421C117.413 5.48421 117.086 5.35904 116.839 5.10868C116.607 4.8436 116.49 4.51225 116.49 4.11463C116.49 3.5992 116.701 3.12795 117.123 2.70087C117.559 2.25907 118.074 2.03817 118.67 2.03817C119.077 2.03817 119.397 2.17808 119.629 2.45788C119.876 2.72296 120 3.04695 120 3.42984C120 3.97473 119.767 4.45335 119.302 4.86569C118.852 5.27804 118.358 5.48421 117.82 5.48421ZM106.681 24.8792C105.795 24.8792 105.083 24.7172 104.545 24.3933C103.993 24.0545 103.717 23.6054 103.717 23.0458C103.717 22.604 103.826 22.0959 104.044 21.5216C104.262 20.9325 104.683 20.1667 105.308 19.2242C105.918 18.2817 106.812 17.0594 107.989 15.5573C109.181 14.0404 110.743 12.1407 112.676 9.85804C112.807 9.87276 113.119 9.88749 113.613 9.90222C114.107 9.91694 114.492 9.9243 114.768 9.9243C115.015 9.9243 115.197 9.9243 115.313 9.9243C115.444 9.90958 115.568 9.89485 115.684 9.88013C113.562 12.4131 111.826 14.4969 110.474 16.1316C109.137 17.7663 108.105 19.0696 107.379 20.0415C106.652 21.0135 106.151 21.7572 105.875 22.2726C105.599 22.7881 105.461 23.2004 105.461 23.5097C105.461 23.8926 105.664 24.1135 106.071 24.1724C106.478 24.2313 106.805 24.2607 107.052 24.2607C107.837 24.2607 108.694 23.9956 109.624 23.4655C110.554 22.9206 111.477 22.2505 112.392 21.4553C113.322 20.6453 114.18 19.828 114.965 19.0033C115.764 18.1786 116.418 17.4717 116.926 16.8827C117.435 16.2789 117.733 15.9328 117.82 15.8444L118.256 16.242C118.096 16.4188 117.748 16.8238 117.21 17.457C116.672 18.0902 116.004 18.8266 115.204 19.666C114.405 20.4907 113.526 21.3007 112.567 22.0959C111.622 22.8911 110.641 23.5538 109.624 24.084C108.621 24.6142 107.64 24.8792 106.681 24.8792Z" fill="#861A0E"/>
<path d="M105.417 50.4713C105.417 50.4713 102.441 48.7919 102.441 46.8126C102.441 46.3831 102.604 45.9712 102.893 45.6675C103.183 45.3638 103.576 45.1932 103.986 45.1932C104.633 45.1932 105.186 45.5624 105.417 46.1529C105.648 45.5624 106.201 45.1932 106.848 45.1932C107.258 45.1932 107.651 45.3638 107.941 45.6675C108.23 45.9712 108.393 46.3831 108.393 46.8126C108.393 48.7919 105.417 50.4713 105.417 50.4713Z" fill="#861A0E"/>
</svg>
